<svg width="16" height="16" viewBox="0 0 16 16" fill="none" xmlns="http://www.w3.org/2000/svg">
<path d="M2 4H3.33333H14" stroke="#AAABAD" stroke-width="1.5" stroke-linecap="round" stroke-linejoin="round"/>
<path d="M5.33337 4.00065V2.66732C5.33337 2.3137 5.47385 1.97456 5.7239 1.72451C5.97395 1.47446 6.31309 1.33398 6.66671 1.33398H9.33337C9.687 1.33398 10.0261 1.47446 10.2762 1.72451C10.5262 1.97456 10.6667 2.3137 10.6667 2.66732V4.00065M12.6667 4.00065V13.334C12.6667 13.6876 12.5262 14.0267 12.2762 14.2768C12.0261 14.5268 11.687 14.6673 11.3334 14.6673H4.66671C4.31309 14.6673 3.97395 14.5268 3.7239 14.2768C3.47385 14.0267 3.33337 13.6876 3.33337 13.334V4.00065H12.6667Z" stroke="#AAABAD" stroke-width="1.5" stroke-linecap="round" stroke-linejoin="round"/>
</svg>
